<svg xmlns="http://www.w3.org/2000/svg" version="1.1" xmlns:xlink="http://www.w3.org/1999/xlink" xmlns:svgjs="http://svgjs.dev/svgjs" width="1000" height="146" viewBox="0 0 1000 146"><g transform="matrix(1,0,0,1,-0.6060606060606801,-0.15944481653778553)"><svg viewBox="0 0 396 58" data-background-color="#f5dca2" preserveAspectRatio="xMidYMid meet" height="146" width="1000" xmlns="http://www.w3.org/2000/svg" xmlns:xlink="http://www.w3.org/1999/xlink"><g id="tight-bounds" transform="matrix(1,0,0,1,0.24000000000003752,0.0633410915013144)"><svg viewBox="0 0 395.5199999999999 57.87331781699739" height="57.87331781699739" width="395.5199999999999"><g><svg viewBox="0 0 566.8400721851792 82.94123090863326" height="57.87331781699739" width="395.5199999999999"><g><rect width="7.442513232528205" height="82.94123090863326" x="144.3945400193311" y="0" fill="#000000" opacity="1" stroke-width="0" stroke="transparent" fill-opacity="1" class="rect-r$-0" data-fill-palette-color="primary" rx="1%" id="r$-0" data-palette-color="#000000"></rect></g><g transform="matrix(1,0,0,1,171.32007218517919,0.2063214699219671)"><svg viewBox="0 0 395.52 82.52858796878932" height="82.52858796878932" width="395.52"><g id="textblocktransform"><svg viewBox="0 0 395.52 82.52858796878932" height="82.52858796878932" width="395.52" id="textblock"><g><svg viewBox="0 0 395.52 82.52858796878932" height="82.52858796878932" width="395.52"><g transform="matrix(1,0,0,1,0,0)"><svg width="395.52" viewBox="3.85 -34.35 198.63 41.45" height="82.52858796878932" data-palette-color="#000000"><path d="M22.65-3.55L22.65 0 3.85 0 3.85-33.7 22.4-33.7 22.4-30.15 7.9-30.15 7.9-18.6 20.7-18.6 20.7-15.05 7.9-15.05 7.9-3.55 22.65-3.55ZM47.3-3.65L47.3 0 28.9 0 28.9-33.7 32.95-33.7 32.95-3.65 47.3-3.65ZM71.55-3.55L71.55 0 52.75 0 52.75-33.7 71.3-33.7 71.3-30.15 56.8-30.15 56.8-18.6 69.59-18.6 69.59-15.05 56.8-15.05 56.8-3.55 71.55-3.55ZM103.99-33.7L92.24 0 87.14 0 75.74-33.7 80.09-33.7 84.49-20.35 89.74-3.65Q91.69-9.95 95.14-20.35L95.14-20.35 99.64-33.7 103.99-33.7ZM113.99-33.7L113.99 0 109.94 0 109.94-33.7 113.99-33.7ZM150.79-17L150.79-17Q150.79-11.2 148.56-7.03 146.34-2.85 142.29-0.95L142.29-0.95 152.29 5.25 147.89 7.1 137.89 0.25Q136.84 0.4 135.69 0.4L135.69 0.4Q128.84 0.4 124.69-4.35 120.54-9.1 120.54-17L120.54-17Q120.54-24.95 124.61-29.65 128.69-34.35 135.64-34.35L135.64-34.35Q142.74-34.35 146.76-29.68 150.79-25 150.79-17ZM124.79-17L124.79-17Q124.79-10.75 127.76-7.1 130.74-3.45 135.69-3.45L135.69-3.45Q140.84-3.45 143.66-7.05 146.49-10.65 146.49-17 146.49-23.35 143.64-26.95 140.79-30.55 135.64-30.55L135.64-30.55Q130.54-30.55 127.66-26.93 124.79-23.3 124.79-17ZM159.84-4.65Q160.69-3.8 160.69-2.55 160.69-1.3 159.84-0.45 158.99 0.4 157.74 0.4 156.49 0.4 155.64-0.45 154.79-1.3 154.79-2.55 154.79-3.8 155.64-4.65 156.49-5.5 157.74-5.5 158.99-5.5 159.84-4.65ZM172.78-14.2L172.78-14.2 172.13-12.3 184.08-12.3 183.43-14.25 178.18-30.45Q177.58-28.3 172.78-14.2ZM170.98-8.85L167.98 0 163.63 0 175.38-33.7 180.98-33.7 192.53 0 188.18 0 185.23-8.85 170.98-8.85ZM202.48-33.7L202.48 0 198.43 0 198.43-33.7 202.48-33.7Z" opacity="1" transform="matrix(1,0,0,1,0,0)" fill="#000000" class="wordmark-text-0" data-fill-palette-color="primary" id="text-0"></path></svg></g></svg></g></svg></g></svg></g><g transform="matrix(1,0,0,1,0,0.2063214699219671)"><svg viewBox="0 0 124.91152108601118 82.52858796878932" height="82.52858796878932" width="124.91152108601118"><g><svg xmlns="http://www.w3.org/2000/svg" xmlns:xlink="http://www.w3.org/1999/xlink" version="1.1" x="0" y="0" viewBox="4.9998843751634325 20.26861045253667 90.00108471639739 59.46338954746333" enable-background="new 0 0 100 100" xml:space="preserve" height="82.52858796878932" width="124.91152108601118" class="icon-icon-0" data-fill-palette-color="accent" id="icon-0"><g fill="#000000" data-fill-palette-color="accent"><path fill="#000000" d="M93.393 76.518H6.607C5.72 76.518 5 77.237 5 78.125s0.72 1.607 1.607 1.607h86.785c0.887 0 1.607-0.719 1.607-1.607S94.28 76.518 93.393 76.518z" data-fill-palette-color="accent"></path><path fill="#000000" d="M5.697 69.806c0.278 0.191 0.595 0.283 0.909 0.283 0.511 0 1.014-0.243 1.326-0.697l10.661-15.506 12.913 13.623 17.06-26.999 19.263 23.354 26.909-41.108c0.487-0.743 0.278-1.739-0.465-2.225-0.739-0.485-1.737-0.279-2.224 0.464L67.529 58.45 48.22 35.04 30.995 62.298 18.193 48.793 5.283 67.572C4.78 68.303 4.965 69.303 5.697 69.806z" data-fill-palette-color="accent"></path></g></svg></g></svg></g></svg></g><defs></defs></svg><rect width="395.5199999999999" height="57.87331781699739" fill="none" stroke="none" visibility="hidden"></rect></g></svg></g></svg>